STARTFONT 2.1
FONT -Monotype-Century Schoolbook-Regular-R-Normal--24-240-75-75-P-120-iso8859-2
SIZE 24 75 75
FONTBOUNDINGBOX 29 31 -4 -6

STARTPROPERTIES 24
FOUNDRY "Monotype"
FAMILY_NAME "Century Schoolbook"
WEIGHT_NAME "Regular"
SLANT "R"
SETWIDTH_NAME "Normal"
ADD_STYLE_NAME ""
PIXEL_SIZE 24
POINT_SIZE 240
RESOLUTION_X 75
RESOLUTION_Y 75
SPACING "P"
AVERAGE_WIDTH 120
CHARSET_REGISTRY "iso8859"
CHARSET_ENCODING "2"
FACE_NAME "Century Schoolbook ISO Latin2"
_DEC_DEVICE_FONTNAMES "PS=centuryschoolbook-lat2"
COPYRIGHT "Copyright (c) 1993 Monotype Typography Ltd."
CAP_HEIGHT 22
X_HEIGHT 14
WEIGHT 10
QUAD_WIDTH 15
DEFAULT_CHAR 160
FONT_DESCENT 6
FONT_ASCENT 25
ENDPROPERTIES

CHARS 191

STARTCHAR space
ENCODING 32
SWIDTH 278 0
DWIDTH 7 0
BBX 0 0 0 0
BITMAP
ENDCHAR

STARTCHAR exclam
ENCODING 33
SWIDTH 296 0
DWIDTH 7 0
BBX 3 19 2 0
BITMAP
60
E0
E0
E0
E0
E0
40
40
40
40
40
40
40
00
00
00
E0
E0
E0
ENDCHAR

STARTCHAR quotedbl
ENCODING 34
SWIDTH 389 0
DWIDTH 10 0
BBX 8 7 1 10
BITMAP
E7
E7
E7
46
42
42
42
ENDCHAR

STARTCHAR numbersign
ENCODING 35
SWIDTH 556 0
DWIDTH 14 0
BBX 14 18 0 0
BITMAP
0410
0C30
0C30
0C30
0820
FFFC
FFFC
1860
1860
1040
1040
FFFC
FFFC
2080
2080
6180
6180
6180
ENDCHAR

STARTCHAR dollar
ENCODING 36
SWIDTH 556 0
DWIDTH 14 0
BBX 11 21 2 -3
BITMAP
0400
3F00
4480
84C0
85C0
8480
C400
7400
7E00
1F00
0780
05C0
0440
E460
E460
C440
44C0
3F80
0400
0400
0400
ENDCHAR

STARTCHAR percent
ENCODING 37
SWIDTH 833 0
DWIDTH 21 0
BBX 18 18 1 0
BITMAP
380000
440300
460400
C60400
C60800
C61000
C62000
462000
644000
388700
008880
0118C0
0218C0
0418C0
0418C0
0818C0
100880
300700
ENDCHAR

STARTCHAR ampersand
ENCODING 38
SWIDTH 815 0
DWIDTH 20 0
BBX 17 18 2 0
BITMAP
078000
0C4000
186000
186000
186000
1CC000
0D8000
0E0000
1E3F80
370E00
630400
C38800
C1C800
C0F080
E07080
707980
3F9F00
0E0E00
ENDCHAR

STARTCHAR quoteright
ENCODING 39
SWIDTH 204 0
DWIDTH 5 0
BBX 3 7 1 11
BITMAP
C0
E0
E0
20
20
40
80
ENDCHAR

STARTCHAR parenleft
ENCODING 40
SWIDTH 333 0
DWIDTH 8 0
BBX 6 23 2 -5
BITMAP
04
08
18
30
20
60
60
E0
C0
C0
C0
C0
C0
C0
C0
60
60
20
30
10
08
04
04
ENDCHAR

STARTCHAR parenright
ENCODING 41
SWIDTH 333 0
DWIDTH 8 0
BBX 6 23 1 -5
BITMAP
80
40
60
30
10
18
18
0C
0C
0C
0C
0C
0C
0C
0C
18
18
10
30
20
40
80
80
ENDCHAR

STARTCHAR asterisk
ENCODING 42
SWIDTH 500 0
DWIDTH 13 0
BBX 10 10 1 8
BITMAP
0C00
0C00
0C00
E5C0
F7C0
0C00
1A00
3300
3300
1100
ENDCHAR

STARTCHAR plus
ENCODING 43
SWIDTH 606 0
DWIDTH 15 0
BBX 14 14 1 1
BITMAP
0300
0300
0300
0300
0300
0300
FFFC
FFFC
0300
0300
0300
0300
0300
0300
ENDCHAR

STARTCHAR comma
ENCODING 44
SWIDTH 278 0
DWIDTH 7 0
BBX 3 7 2 -4
BITMAP
C0
E0
E0
20
20
40
80
ENDCHAR

STARTCHAR minus
ENCODING 45
SWIDTH 606 0
DWIDTH 15 0
BBX 13 2 1 7
BITMAP
FFF8
FFF8
ENDCHAR

STARTCHAR period
ENCODING 46
SWIDTH 278 0
DWIDTH 7 0
BBX 3 3 2 0
BITMAP
E0
E0
E0
ENDCHAR

STARTCHAR slash
ENCODING 47
SWIDTH 278 0
DWIDTH 7 0
BBX 7 18 0 0
BITMAP
06
06
04
0C
0C
08
18
18
10
10
30
20
20
60
60
40
C0
C0
ENDCHAR

STARTCHAR zero
ENCODING 48
SWIDTH 556 0
DWIDTH 14 0
BBX 11 18 2 0
BITMAP
1F00
3180
60C0
60C0
C060
C060
C060
C060
C060
C060
C060
C060
C060
E060
60C0
60C0
3180
0E00
ENDCHAR

STARTCHAR one
ENCODING 49
SWIDTH 556 0
DWIDTH 14 0
BBX 10 17 2 0
BITMAP
0400
3C00
FC00
0C00
0C00
0C00
0C00
0C00
0C00
0C00
0C00
0C00
0C00
0C00
0C00
0C00
7FC0
ENDCHAR

STARTCHAR two
ENCODING 50
SWIDTH 556 0
DWIDTH 14 0
BBX 11 17 1 0
BITMAP
0F00
30C0
4060
4060
7060
7060
30E0
00C0
0180
0300
0600
0400
0820
1020
2020
7FE0
FFE0
ENDCHAR

STARTCHAR three
ENCODING 51
SWIDTH 556 0
DWIDTH 14 0
BBX 11 18 2 0
BITMAP
3F00
6180
C1C0
E0C0
E0C0
40C0
01C0
0100
1E00
0180
00C0
00E0
E0E0
E0E0
C0E0
C0C0
6180
1F00
ENDCHAR

STARTCHAR four
ENCODING 52
SWIDTH 556 0
DWIDTH 14 0
BBX 12 17 1 0
BITMAP
0080
0180
0180
0380
0580
0D80
0980
1180
3180
2180
4180
8180
FFF0
0180
0180
0180
0FE0
ENDCHAR

STARTCHAR five
ENCODING 53
SWIDTH 556 0
DWIDTH 14 0
BBX 11 18 2 0
BITMAP
2040
3F80
3F00
2000
4000
4000
5F00
6180
C0C0
40C0
00E0
40E0
E0E0
E0E0
C0C0
C1C0
6180
1E00
ENDCHAR

STARTCHAR six
ENCODING 54
SWIDTH 556 0
DWIDTH 14 0
BBX 12 18 1 0
BITMAP
07C0
0C60
1070
3070
6020
6000
6000
E7C0
E8E0
F070
E030
E030
6030
6030
6030
3060
18C0
0F80
ENDCHAR

STARTCHAR seven
ENCODING 55
SWIDTH 556 0
DWIDTH 14 0
BBX 11 18 2 0
BITMAP
7FE0
7FE0
C040
8040
8080
8080
0100
0100
0300
0200
0600
0600
0600
0E00
0E00
0E00
0C00
0C00
ENDCHAR

STARTCHAR eight
ENCODING 56
SWIDTH 556 0
DWIDTH 14 0
BBX 12 18 1 0
BITMAP
0F00
30C0
2060
6060
6060
6040
78C0
3F80
0F80
1BE0
60E0
4070
C030
C030
C030
6020
30C0
1F00
ENDCHAR

STARTCHAR nine
ENCODING 57
SWIDTH 556 0
DWIDTH 14 0
BBX 12 18 1 0
BITMAP
0F00
30C0
7060
6060
E030
E030
E030
E070
7070
38B0
1F30
0030
0030
2060
7060
60C0
3180
1E00
ENDCHAR

STARTCHAR colon
ENCODING 58
SWIDTH 278 0
DWIDTH 7 0
BBX 3 12 2 0
BITMAP
E0
E0
E0
00
00
00
00
00
00
E0
E0
E0
ENDCHAR

STARTCHAR semicolon
ENCODING 59
SWIDTH 278 0
DWIDTH 7 0
BBX 3 16 2 -4
BITMAP
E0
E0
E0
00
00
00
00
00
00
C0
E0
E0
20
20
40
80
ENDCHAR

STARTCHAR less
ENCODING 60
SWIDTH 606 0
DWIDTH 15 0
BBX 13 13 1 2
BITMAP
0008
0038
00F0
0780
1E00
F000
C000
F000
1E00
0780
00F0
0038
0008
ENDCHAR

STARTCHAR equal
ENCODING 61
SWIDTH 606 0
DWIDTH 15 0
BBX 13 8 1 5
BITMAP
FFF8
FFF8
0000
0000
0000
0000
FFF8
FFF8
ENDCHAR

STARTCHAR greater
ENCODING 62
SWIDTH 606 0
DWIDTH 15 0
BBX 13 13 1 2
BITMAP
8000
E000
7C00
0F00
03C0
0078
0018
0078
03C0
0F00
7C00
E000
8000
ENDCHAR

STARTCHAR question
ENCODING 63
SWIDTH 444 0
DWIDTH 11 0
BBX 9 19 1 0
BITMAP
3E00
4300
C180
E180
E180
4180
0380
0300
0600
0C00
0800
0800
0800
0000
0000
0000
1C00
1C00
1800
ENDCHAR

STARTCHAR at
ENCODING 64
SWIDTH 737 0
DWIDTH 18 0
BBX 19 20 0 -2
BITMAP
01F800
060600
080100
100080
200080
406C40
419C40
C30840
821840
861840
841840
8C3080
8C7100
CCB220
471C40
400040
200080
100100
0E0E00
01F000
ENDCHAR

STARTCHAR A
ENCODING 65
SWIDTH 722 0
DWIDTH 18 0
BBX 18 19 0 0
BITMAP
004000
00C000
00C000
00E000
016000
017000
027000
023000
023800
041800
041C00
080C00
0FFC00
080E00
100E00
100600
300300
700700
FC1FC0
ENDCHAR

STARTCHAR B
ENCODING 66
SWIDTH 722 0
DWIDTH 18 0
BBX 17 18 0 0
BITMAP
FFF800
1C0E00
1C0700
1C0700
1C0700
1C0700
1C0600
1C0400
1FF800
1C0E00
1C0700
1C0380
1C0380
1C0380
1C0380
1C0700
1C0E00
FFF800
ENDCHAR

STARTCHAR C
ENCODING 67
SWIDTH 722 0
DWIDTH 18 0
BBX 15 18 2 0
BITMAP
07C4
0C34
380C
300E
7006
6006
E002
E000
E000
E000
E000
E000
E002
7002
3004
380C
0C18
03E0
ENDCHAR

STARTCHAR D
ENCODING 68
SWIDTH 778 0
DWIDTH 19 0
BBX 18 18 0 0
BITMAP
FFF800
1C0E00
1C0700
1C0380
1C0380
1C0180
1C01C0
1C01C0
1C01C0
1C01C0
1C01C0
1C01C0
1C01C0
1C0380
1C0380
1C0700
1C0E00
FFF800
ENDCHAR

STARTCHAR E
ENCODING 69
SWIDTH 722 0
DWIDTH 18 0
BBX 15 18 2 0
BITMAP
FFFC
381C
380C
3804
3804
3844
3840
38C0
3FC0
38C0
3840
3842
3842
3806
3806
380E
381E
FFFE
ENDCHAR

STARTCHAR F
ENCODING 70
SWIDTH 667 0
DWIDTH 17 0
BBX 15 18 1 0
BITMAP
FFFE
1C0E
1C06
1C02
1C02
1C22
1C20
1C60
1FE0
1C60
1C20
1C20
1C20
1C00
1C00
1C00
1C00
FF80
ENDCHAR

STARTCHAR G
ENCODING 71
SWIDTH 778 0
DWIDTH 19 0
BBX 18 18 1 0
BITMAP
03E200
0C1600
180E00
300600
700600
600200
E00200
E00000
E00000
E00000
E03FC0
E00600
600600
700600
300600
380A00
0C1200
03E200
ENDCHAR

STARTCHAR H
ENCODING 72
SWIDTH 833 0
DWIDTH 21 0
BBX 18 18 1 0
BITMAP
FE1FC0
380700
380700
380700
380700
380700
380700
380700
3FFF00
380700
380700
380700
380700
380700
380700
380700
380700
FE1FC0
ENDCHAR

STARTCHAR I
ENCODING 73
SWIDTH 407 0
DWIDTH 10 0
BBX 9 18 1 0
BITMAP
FF80
1C00
1C00
1C00
1C00
1C00
1C00
1C00
1C00
1C00
1C00
1C00
1C00
1C00
1C00
1C00
1C00
FF80
ENDCHAR

STARTCHAR J
ENCODING 74
SWIDTH 556 0
DWIDTH 14 0
BBX 12 18 1 0
BITMAP
0FF0
01C0
01C0
01C0
01C0
01C0
01C0
01C0
01C0
01C0
01C0
61C0
F1C0
F1C0
A1C0
8180
4380
3E00
ENDCHAR

STARTCHAR K
ENCODING 75
SWIDTH 778 0
DWIDTH 19 0
BBX 19 18 1 0
BITMAP
FF9FC0
1C0700
1C0600
1C0C00
1C1800
1C3000
1C6000
1CE000
1DE000
1D7000
1E3800
1C3800
1C1C00
1C0E00
1C0700
1C0700
1C0380
FF9FE0
ENDCHAR

STARTCHAR L
ENCODING 76
SWIDTH 667 0
DWIDTH 17 0
BBX 16 18 0 0
BITMAP
FF80
1C00
1C00
1C00
1C00
1C00
1C00
1C00
1C00
1C00
1C00
1C01
1C01
1C03
1C03
1C07
1C0F
FFFE
ENDCHAR

STARTCHAR M
ENCODING 77
SWIDTH 944 0
DWIDTH 24 0
BBX 23 18 0 0
BITMAP
FC00FE
1600B0
1600B0
160170
170170
130170
138270
138270
118670
11C470
10C470
10EC70
10E870
106870
107070
103070
383070
FE23FE
ENDCHAR

STARTCHAR N
ENCODING 78
SWIDTH 815 0
DWIDTH 20 0
BBX 19 18 1 0
BITMAP
F80FE0
3C0380
1C0100
160100
170100
138100
138100
11C100
10E100
107100
107100
103900
101D00
100F00
100F00
100700
780300
FE0100
ENDCHAR

STARTCHAR O
ENCODING 79
SWIDTH 778 0
DWIDTH 19 0
BBX 17 18 1 0
BITMAP
03E000
0C1800
380E00
300600
700700
600300
E00380
E00380
E00380
E00380
E00380
E00380
600300
700700
300600
180E00
0C1800
03E000
ENDCHAR

STARTCHAR P
ENCODING 80
SWIDTH 667 0
DWIDTH 17 0
BBX 16 18 0 0
BITMAP
FFF8
1C0C
1C0E
1C07
1C07
1C07
1C07
1C0E
1C1C
1FF0
1C00
1C00
1C00
1C00
1C00
1C00
1C00
FF80
ENDCHAR

STARTCHAR Q
ENCODING 81
SWIDTH 778 0
DWIDTH 19 0
BBX 17 23 1 -5
BITMAP
03F000
0C1C00
380E00
300600
700700
700380
E00380
E00380
E00380
E00380
E00380
F1E380
723300
741700
3C1A00
1C1C00
0E1800
03FC00
001C80
000C80
000E80
000F80
000700
ENDCHAR

STARTCHAR R
ENCODING 82
SWIDTH 722 0
DWIDTH 18 0
BBX 17 18 1 0
BITMAP
FFF000
1C1C00
1C0C00
1C0E00
1C0E00
1C0E00
1C0C00
1C3800
1FC000
1C7000
1C3800
1C1800
1C1800
1C1C00
1C1C80
1C1C80
1C0F00
FF8600
ENDCHAR

STARTCHAR S
ENCODING 83
SWIDTH 630 0
DWIDTH 16 0
BBX 13 18 2 0
BITMAP
1F10
20F0
4070
C030
C030
C010
E000
7E00
3FC0
0FF0
00F0
8038
8018
C018
C018
E010
D860
8F80
ENDCHAR

STARTCHAR T
ENCODING 84
SWIDTH 667 0
DWIDTH 17 0
BBX 15 18 1 0
BITMAP
FFFE
E38E
C386
C386
8382
8382
8382
0380
0380
0380
0380
0380
0380
0380
0380
0380
0380
1FF0
ENDCHAR

STARTCHAR U
ENCODING 85
SWIDTH 815 0
DWIDTH 20 0
BBX 20 18 0 0
BITMAP
FF87F0
1C01C0
1C0080
1C0080
1C0080
1C0080
1C0080
1C0080
1C0080
1C0080
1C0080
1C0080
1C0080
1C0080
1C0180
0E0100
078600
03FC00
ENDCHAR

STARTCHAR V
ENCODING 86
SWIDTH 722 0
DWIDTH 18 0
BBX 18 18 0 0
BITMAP
FF0FC0
380300
180300
1C0200
1C0200
0C0400
0E0400
060C00
070800
070800
031000
039000
01B000
01E000
01E000
00E000
00C000
004000
ENDCHAR

STARTCHAR W
ENCODING 87
SWIDTH 981 0
DWIDTH 25 0
BBX 24 18 0 0
BITMAP
FC7F1F
381C06
381C04
180C04
1C1E08
1C1608
0C1608
0E3718
0E2710
062310
0763B0
0743A0
0341A0
03C1E0
0381C0
0180C0
0180C0
010080
ENDCHAR

STARTCHAR X
ENCODING 88
SWIDTH 704 0
DWIDTH 18 0
BBX 17 18 0 0
BITMAP
FF3F80
380E00
1C0C00
0E0800
061000
073000
03A000
01C000
01C000
00E000
017000
037000
023800
041C00
0C1C00
180600
380F00
FE3F80
ENDCHAR

STARTCHAR Y
ENCODING 89
SWIDTH 704 0
DWIDTH 18 0
BBX 18 18 0 0
BITMAP
FF1FC0
380700
1C0200
0E0600
0E0400
070C00
030800
039000
01D000
01E000
00E000
00E000
00E000
00E000
00E000
00E000
00E000
07FC00
ENDCHAR

STARTCHAR Z
ENCODING 90
SWIDTH 611 0
DWIDTH 15 0
BBX 13 18 1 0
BITMAP
7FF8
7038
6070
4070
40E0
41C0
01C0
0380
0700
0700
0E00
1C08
1C08
3808
3018
7018
E078
FFF8
ENDCHAR

STARTCHAR bracketleft
ENCODING 91
SWIDTH 333 0
DWIDTH 8 0
BBX 5 23 3 -5
BITMAP
F8
C0
C0
C0
C0
C0
C0
C0
C0
C0
C0
C0
C0
C0
C0
C0
C0
C0
C0
C0
C0
C0
F8
ENDCHAR

STARTCHAR backslash
ENCODING 92
SWIDTH 606 0
DWIDTH 15 0
BBX 15 18 0 0
BITMAP
C000
6000
3000
1000
0800
0C00
0600
0200
0300
0180
00C0
0040
0060
0030
0010
0008
000C
0006
ENDCHAR

STARTCHAR bracketright
ENCODING 93
SWIDTH 333 0
DWIDTH 8 0
BBX 5 23 0 -5
BITMAP
F8
18
18
18
18
18
18
18
18
18
18
18
18
18
18
18
18
18
18
18
18
18
F8
ENDCHAR

STARTCHAR asciicircum
ENCODING 94
SWIDTH 606 0
DWIDTH 15 0
BBX 11 9 2 8
BITMAP
0400
0E00
0A00
1900
1180
3080
60C0
4040
C060
ENDCHAR

STARTCHAR underscore
ENCODING 95
SWIDTH 500 0
DWIDTH 13 0
BBX 13 1 0 -3
BITMAP
FFF8
ENDCHAR

STARTCHAR quoteleft
ENCODING 96
SWIDTH 204 0
DWIDTH 5 0
BBX 3 7 1 12
BITMAP
20
40
80
80
E0
E0
60
ENDCHAR

STARTCHAR a
ENCODING 97
SWIDTH 556 0
DWIDTH 14 0
BBX 11 12 2 0
BITMAP
3E00
6380
E180
E180
4180
1F80
7180
C180
C180
C380
E4E0
38E0
ENDCHAR

STARTCHAR b
ENCODING 98
SWIDTH 556 0
DWIDTH 14 0
BBX 12 18 0 0
BITMAP
3000
F000
3000
3000
3000
3000
3780
3CE0
3860
3030
3030
3030
3030
3030
3030
3860
28C0
2780
ENDCHAR

STARTCHAR c
ENCODING 99
SWIDTH 444 0
DWIDTH 11 0
BBX 9 12 1 0
BITMAP
1E00
3100
6180
C380
C100
C000
C000
C000
C080
6080
7100
1E00
ENDCHAR

STARTCHAR d
ENCODING 100
SWIDTH 574 0
DWIDTH 14 0
BBX 12 18 2 0
BITMAP
00C0
03C0
00C0
00C0
00C0
00C0
1EC0
61C0
61C0
C0C0
C0C0
C0C0
C0C0
C0C0
E1C0
6140
3EF0
0800
ENDCHAR

STARTCHAR e
ENCODING 101
SWIDTH 500 0
DWIDTH 13 0
BBX 10 12 1 0
BITMAP
1E00
3180
60C0
C0C0
C0C0
FFC0
C000
C000
E040
6040
3180
1F00
ENDCHAR

STARTCHAR f
ENCODING 102
SWIDTH 333 0
DWIDTH 8 0
BBX 10 19 0 0
BITMAP
0780
18C0
19C0
3180
3000
3000
3000
FE00
3000
3000
3000
3000
3000
3000
3000
3000
3000
3000
FE00
ENDCHAR

STARTCHAR g
ENCODING 103
SWIDTH 537 0
DWIDTH 13 0
BBX 12 17 1 -5
BITMAP
1F70
31B0
60C0
60C0
60C0
60C0
1180
3F00
4000
4000
7FC0
1FE0
6060
C020
C020
60C0
3F00
ENDCHAR

STARTCHAR h
ENCODING 104
SWIDTH 611 0
DWIDTH 15 0
BBX 14 18 1 0
BITMAP
3000
F000
3000
3000
3000
3000
33C0
34E0
3830
3030
3030
3030
3030
3030
3030
3030
3030
FCFC
ENDCHAR

STARTCHAR i
ENCODING 105
SWIDTH 315 0
DWIDTH 8 0
BBX 7 18 0 0
BITMAP
10
38
10
00
00
00
38
F8
18
18
18
18
18
18
18
18
18
7E
ENDCHAR

STARTCHAR j
ENCODING 106
SWIDTH 296 0
DWIDTH 7 0
BBX 6 23 -1 -5
BITMAP
0C
1C
08
00
00
00
1C
7C
0C
0C
0C
0C
0C
0C
0C
0C
0C
0C
0C
0C
C8
F8
60
ENDCHAR

STARTCHAR k
ENCODING 107
SWIDTH 593 0
DWIDTH 15 0
BBX 13 18 1 0
BITMAP
3000
F000
3000
3000
3000
3000
33F8
30E0
3080
3100
3200
3700
3B80
3180
30C0
30E0
3060
FDF8
ENDCHAR

STARTCHAR l
ENCODING 108
SWIDTH 315 0
DWIDTH 8 0
BBX 6 18 1 0
BITMAP
30
F0
30
30
30
30
30
30
30
30
30
30
30
30
30
30
30
FC
ENDCHAR

STARTCHAR m
ENCODING 109
SWIDTH 889 0
DWIDTH 22 0
BBX 20 12 1 0
BITMAP
F18300
77CF80
38F1C0
3060C0
3060C0
3060C0
3060C0
3060C0
3060C0
3060C0
3060C0
FDFBF0
ENDCHAR

STARTCHAR n
ENCODING 110
SWIDTH 611 0
DWIDTH 15 0
BBX 14 12 1 0
BITMAP
F180
77E0
3870
3830
3030
3030
3030
3030
3030
3030
3030
FCFC
ENDCHAR

STARTCHAR o
ENCODING 111
SWIDTH 500 0
DWIDTH 13 0
BBX 11 12 1 0
BITMAP
1F00
3180
60C0
E060
C060
C060
C060
C060
E0E0
60C0
3180
1F00
ENDCHAR

STARTCHAR p
ENCODING 112
SWIDTH 574 0
DWIDTH 14 0
BBX 12 17 1 -5
BITMAP
F180
77C0
3860
3070
3030
3030
3030
3030
3030
3860
3CE0
37C0
3000
3000
3000
3000
FC00
ENDCHAR

STARTCHAR q
ENCODING 113
SWIDTH 556 0
DWIDTH 14 0
BBX 12 17 2 -5
BITMAP
1E40
3140
61C0
C0C0
C0C0
C0C0
C0C0
C0C0
E0C0
61C0
73C0
1EC0
00C0
00C0
00C0
00C0
03F0
ENDCHAR

STARTCHAR r
ENCODING 114
SWIDTH 444 0
DWIDTH 11 0
BBX 10 12 1 0
BITMAP
7100
F780
35C0
39C0
3000
3000
3000
3000
3000
3000
3000
FE00
ENDCHAR

STARTCHAR s
ENCODING 115
SWIDTH 463 0
DWIDTH 12 0
BBX 9 12 2 0
BITMAP
3D00
4300
8100
8180
E000
7E00
3F80
8180
8080
C080
E100
9E00
ENDCHAR

STARTCHAR t
ENCODING 116
SWIDTH 389 0
DWIDTH 10 0
BBX 9 17 1 0
BITMAP
1000
1000
1000
3000
3000
FF00
3000
3000
3000
3000
3000
3000
3080
3080
3100
3900
1E00
ENDCHAR

STARTCHAR u
ENCODING 117
SWIDTH 611 0
DWIDTH 15 0
BBX 14 12 1 0
BITMAP
7070
F0F0
3030
3030
3030
3030
3030
3030
3030
3850
1FBC
0600
ENDCHAR

STARTCHAR v
ENCODING 118
SWIDTH 537 0
DWIDTH 13 0
BBX 13 12 0 0
BITMAP
FCF8
7070
3020
3860
1840
1840
0C80
0C80
0700
0700
0300
0200
ENDCHAR

STARTCHAR w
ENCODING 119
SWIDTH 778 0
DWIDTH 19 0
BBX 18 12 1 0
BITMAP
FBF3C0
70C180
30E100
30E100
38A300
193200
193200
0D3E00
0E1C00
0E1C00
060800
040800
ENDCHAR

STARTCHAR x
ENCODING 120
SWIDTH 537 0
DWIDTH 13 0
BBX 13 12 1 0
BITMAP
FDF0
7060
3880
1D80
0D00
0600
0700
0B80
1980
10C0
70E0
F9F8
ENDCHAR

STARTCHAR y
ENCODING 121
SWIDTH 537 0
DWIDTH 13 0
BBX 13 17 0 -5
BITMAP
FCF8
7030
3020
3820
1840
1840
0C80
0C80
0700
0700
0200
0200
0200
0400
C400
C800
F000
ENDCHAR

STARTCHAR z
ENCODING 122
SWIDTH 481 0
DWIDTH 12 0
BBX 10 12 1 0
BITMAP
7FC0
6180
4380
4300
0600
0E00
1C00
1840
3840
7040
60C0
FFC0
ENDCHAR

STARTCHAR braceleft
ENCODING 123
SWIDTH 333 0
DWIDTH 8 0
BBX 7 23 1 -5
BITMAP
0E
10
30
30
30
18
18
18
18
10
E0
40
30
10
18
18
38
38
30
30
10
08
06
ENDCHAR

STARTCHAR bar
ENCODING 124
SWIDTH 606 0
DWIDTH 15 0
BBX 2 21 7 -3
BITMAP
C0
C0
C0
C0
C0
C0
C0
C0
C0
C0
C0
C0
C0
C0
C0
C0
C0
C0
C0
C0
C0
ENDCHAR

STARTCHAR braceright
ENCODING 125
SWIDTH 333 0
DWIDTH 8 0
BBX 7 23 0 -5
BITMAP
E0
10
18
18
38
38
38
30
30
10
0C
06
18
10
30
30
38
18
18
18
10
20
C0
ENDCHAR

STARTCHAR asciitilde
ENCODING 126
SWIDTH 606 0
DWIDTH 15 0
BBX 13 4 1 6
BITMAP
3808
FF08
83F8
8060
ENDCHAR

STARTCHAR space
ENCODING 160
SWIDTH 278 0
DWIDTH 9 0
BBX 0 0 0 0
BITMAP
ENDCHAR

STARTCHAR Aogonek
ENCODING 161
SWIDTH 722 0
DWIDTH 18 0
BBX 20 24 0 -5
BITMAP
004000
004000
00E000
00E000
00B000
017000
013000
023800
021800
021C00
041C00
040C00
0FFE00
080600
080700
100700
100300
380380
FE1FE0
000200
000200
000300
000380
0001F0
ENDCHAR

STARTCHAR breve
ENCODING 162
SWIDTH 333 0
DWIDTH 8 0
BBX 8 4 0 14
BITMAP
81
43
7E
3C
ENDCHAR

STARTCHAR Lslash
ENCODING 163
SWIDTH 667 0
DWIDTH 17 0
BBX 16 18 0 0
BITMAP
FF80
1C00
1C00
1C00
1C20
1C60
1D80
1F00
1C00
3C00
DC00
9C01
1C01
1C03
1C03
1C07
1C0F
FFFE
ENDCHAR

STARTCHAR currency
ENCODING 164
SWIDTH 606 0
DWIDTH 15 0
BBX 12 12 2 2
BITMAP
CF30
FFF0
70E0
6060
C030
C030
C030
4030
6060
70E0
FFF0
CF30
ENDCHAR

STARTCHAR Lcaron
ENCODING 165
SWIDTH 667 0
DWIDTH 17 0
BBX 16 18 0 0
BITMAP
FF9C
1C1C
1C04
1C04
1C08
1C10
1C00
1C00
1C00
1C00
1C00
1C01
1C01
1C03
1C03
1C07
1C0F
FFFE
ENDCHAR

STARTCHAR Sacute
ENCODING 166
SWIDTH 630 0
DWIDTH 16 0
BBX 13 24 2 0
BITMAP
00C0
0180
0300
0600
0400
0000
1F10
20F0
4070
C030
C030
C010
E000
7E00
3FC0
0FF0
00F0
8038
8018
C018
C010
E010
D860
8F80
ENDCHAR

STARTCHAR section
ENCODING 167
SWIDTH 500 0
DWIDTH 13 0
BBX 8 24 2 -5
BITMAP
3C
62
C7
C7
C0
60
70
38
5C
8E
87
83
C1
E1
71
3A
1C
0E
06
03
E3
E3
46
3C
ENDCHAR

STARTCHAR dieresis
ENCODING 168
SWIDTH 333 0
DWIDTH 8 0
BBX 8 3 0 14
BITMAP
42
E7
42
ENDCHAR

STARTCHAR Scaron
ENCODING 169
SWIDTH 630 0
DWIDTH 16 0
BBX 13 24 2 0
BITMAP
1040
0880
0500
0700
0000
0000
1F10
20F0
4070
C030
C030
C010
E000
7E00
3FC0
0FF0
00F0
8038
8018
C018
C010
E010
D860
8F80
ENDCHAR

STARTCHAR Scommaaccent
ENCODING 170
SWIDTH 630 0
DWIDTH 16 0
BBX 13 23 2 -5
BITMAP
1F10
20F0
4070
C030
C030
C010
E000
7E00
3FC0
0FF0
00F0
8038
8018
C018
C010
E010
D860
8F80
0000
0700
0700
0100
0200
ENDCHAR

STARTCHAR Tcaron
ENCODING 171
SWIDTH 667 0
DWIDTH 17 0
BBX 15 24 1 0
BITMAP
0C60
06C0
0380
0100
0000
0000
FFFE
E38E
C386
C386
8382
8382
8382
0380
0380
0380
0380
0380
0380
0380
0380
0380
0380
1FF0
ENDCHAR

STARTCHAR Zacute
ENCODING 172
SWIDTH 611 0
DWIDTH 15 0
BBX 13 24 1 0
BITMAP
01C0
0180
0300
0600
0400
0000
7FF8
7038
6070
4070
40E0
41C0
01C0
0380
0700
0700
0E00
1C08
1C08
3808
3018
7018
E078
FFF8
ENDCHAR

STARTCHAR hyphen
ENCODING 173
SWIDTH 333 0
DWIDTH 8 0
BBX 5 2 2 5
BITMAP
F8
F8
ENDCHAR

STARTCHAR Zcaron
ENCODING 174
SWIDTH 611 0
DWIDTH 15 0
BBX 13 24 1 0
BITMAP
18C0
0D80
0700
0300
0000
0000
7FF8
7038
6070
4070
40E0
41C0
01C0
0380
0700
0700
0E00
1C08
1C08
3808
3018
7018
E078
FFF8
ENDCHAR

STARTCHAR Zdotaccent
ENCODING 175
SWIDTH 611 0
DWIDTH 15 0
BBX 13 23 1 0
BITMAP
0200
0700
0200
0000
0000
7FF8
7038
6070
4060
C0E0
81C0
0180
0380
0700
0700
0E00
1C08
1C08
3808
7018
7018
E078
FFF8
ENDCHAR

STARTCHAR degree
ENCODING 176
SWIDTH 400 0
DWIDTH 10 0
BBX 7 7 2 10
BITMAP
7C
EE
82
82
C2
CE
7C
ENDCHAR

STARTCHAR aogonek
ENCODING 177
SWIDTH 556 0
DWIDTH 14 0
BBX 13 17 2 -5
BITMAP
3E00
6380
C180
E180
4180
0F80
3180
6180
C180
C380
E5A0
F8E0
0100
0100
0180
01C0
00F8
ENDCHAR

STARTCHAR ogonek
ENCODING 178
SWIDTH 333 0
DWIDTH 8 0
BBX 6 5 2 -5
BITMAP
40
80
80
C0
7C
ENDCHAR

STARTCHAR lslash
ENCODING 179
SWIDTH 315 0
DWIDTH 8 0
BBX 6 18 1 0
BITMAP
30
F0
30
30
30
34
34
38
30
70
B0
B0
30
30
30
30
30
FC
ENDCHAR

STARTCHAR acute
ENCODING 180
SWIDTH 333 0
DWIDTH 8 0
BBX 5 5 3 13
BITMAP
38
70
60
80
80
ENDCHAR

STARTCHAR lcaron
ENCODING 181
SWIDTH 385 0
DWIDTH 10 0
BBX 8 18 1 0
BITMAP
F6
77
31
31
36
30
30
30
30
30
30
30
30
30
30
30
30
FC
ENDCHAR

STARTCHAR sacute
ENCODING 182
SWIDTH 463 0
DWIDTH 12 0
BBX 9 19 2 0
BITMAP
0200
0700
0E00
0800
3000
0000
0000
3D00
4300
8100
8180
E000
7E00
3F80
8180
8080
C080
E100
9E00
ENDCHAR

STARTCHAR caron
ENCODING 183
SWIDTH 333 0
DWIDTH 8 0
BBX 7 4 1 14
BITMAP
86
48
38
30
ENDCHAR

STARTCHAR commaaccent
ENCODING 184
SWIDTH 333 0
DWIDTH 8 0
BBX 3 4 3 -5
BITMAP
C0
E0
20
40
ENDCHAR

STARTCHAR scaron
ENCODING 185
SWIDTH 463 0
DWIDTH 12 0
BBX 9 19 2 0
BITMAP
4100
2200
3600
1C00
0800
0000
0000
3D00
4300
8100
C180
E000
7E00
3F80
8180
8080
C080
E100
9E00
ENDCHAR

STARTCHAR scommaaccent
ENCODING 186
SWIDTH 463 0
DWIDTH 12 0
BBX 9 17 1 -5
BITMAP
3D00
4300
8100
8180
E000
7F00
3F80
8180
8080
C080
E100
9E00
0000
1C00
1C00
0400
0800
ENDCHAR

STARTCHAR tcaron
ENCODING 187
SWIDTH 461 0
DWIDTH 12 0
BBX 9 19 1 0
BITMAP
0380
0380
1080
1080
1300
3000
3000
FF00
3000
3000
3000
3000
3000
3000
3080
3080
3100
3900
1E00
ENDCHAR

STARTCHAR zacute
ENCODING 188
SWIDTH 481 0
DWIDTH 12 0
BBX 10 19 1 0
BITMAP
0300
0300
0600
0C00
1000
0000
0000
7FC0
6180
4380
4300
0600
0E00
1C00
1840
3840
7040
60C0
FFC0
ENDCHAR

STARTCHAR hungarumlaut
ENCODING 189
SWIDTH 333 0
DWIDTH 8 0
BBX 10 5 1 13
BITMAP
18C0
39C0
6300
4200
8400
ENDCHAR

STARTCHAR zcaron
ENCODING 190
SWIDTH 481 0
DWIDTH 12 0
BBX 10 19 1 0
BITMAP
2180
1300
1E00
0C00
0000
0000
0000
7FC0
6180
4380
4300
0600
0E00
1C00
1840
3840
7040
60C0
FFC0
ENDCHAR

STARTCHAR zdotaccent
ENCODING 191
SWIDTH 481 0
DWIDTH 12 0
BBX 9 17 2 0
BITMAP
0800
1C00
0800
0000
0000
FF80
C380
8300
8600
0E00
0C00
1800
3880
7080
6080
C180
FF80
ENDCHAR

STARTCHAR Racute
ENCODING 192
SWIDTH 722 0
DWIDTH 18 0
BBX 17 24 1 0
BITMAP
007000
006000
00C000
018000
010000
000000
FFF000
1C1C00
1C0C00
1C0E00
1C0E00
1C0E00
1C0C00
1C3800
1FC000
1C7000
1C3800
1C1800
1C1800
1C1C00
1C1C80
1C1C80
1C0F00
FF8600
ENDCHAR

STARTCHAR Aacute
ENCODING 193
SWIDTH 722 0
DWIDTH 18 0
BBX 18 25 0 0
BITMAP
001000
003000
007000
00C000
008000
010000
004000
00C000
00C000
00E000
016000
017000
027000
023000
023800
041800
041C00
080C00
0FFC00
080E00
100E00
100600
300300
700700
FC1FC0
ENDCHAR

STARTCHAR Acircumflex
ENCODING 194
SWIDTH 722 0
DWIDTH 18 0
BBX 18 24 0 0
BITMAP
00C000
01A000
033000
021000
000000
004000
00C000
00C000
00E000
016000
017000
027000
023000
023800
041800
041C00
081C00
0FFC00
080E00
100E00
100600
300300
700700
FC1FC0
ENDCHAR

STARTCHAR Abreve
ENCODING 195
SWIDTH 722 0
DWIDTH 18 0
BBX 18 24 0 0
BITMAP
040800
021000
03F000
01E000
000000
000000
00C000
00C000
00E000
016000
017000
027000
023000
023800
041800
041800
080C00
0FFC00
080E00
100E00
100600
300300
700700
FC1FC0
ENDCHAR

STARTCHAR Adieresis
ENCODING 196
SWIDTH 722 0
DWIDTH 18 0
BBX 18 23 0 0
BITMAP
021000
073800
021000
000000
004000
00C000
00C000
01E000
016000
017000
027000
023000
043800
041800
041C00
080C00
0FFC00
100E00
100600
100700
200300
700780
FC1FC0
ENDCHAR

STARTCHAR Lacute
ENCODING 197
SWIDTH 667 0
DWIDTH 17 0
BBX 16 24 0 0
BITMAP
0060
00E0
01C0
0100
0200
0000
FF80
1C00
1C00
1C00
1C00
1C00
1C00
1C00
1C00
1C00
1C00
1C01
1C01
1C03
1C03
1C07
1C0F
FFFE
ENDCHAR

STARTCHAR Cacute
ENCODING 198
SWIDTH 722 0
DWIDTH 18 0
BBX 15 24 2 0
BITMAP
0060
00C0
01C0
0100
0200
0000
07E4
0C34
180C
300E
7006
6006
E002
E000
E000
E000
E000
E000
6002
7002
3004
380C
0C18
03E0
ENDCHAR

STARTCHAR Ccedilla
ENCODING 199
SWIDTH 722 0
DWIDTH 18 0
BBX 16 23 2 -5
BITMAP
07E2
0C1E
180E
3006
7006
7002
E002
E000
E000
E000
E000
E000
F001
7002
3002
3804
0C18
03E0
00C0
0060
0060
01C0
0300
ENDCHAR

STARTCHAR Ccaron
ENCODING 200
SWIDTH 722 0
DWIDTH 18 0
BBX 15 24 2 0
BITMAP
0820
0440
0280
0380
0000
0000
07E4
0C34
180C
300E
7006
6006
E002
E000
E000
E000
E000
E000
6002
7002
3004
380C
0C18
03E0
ENDCHAR

STARTCHAR Eacute
ENCODING 201
SWIDTH 722 0
DWIDTH 18 0
BBX 15 24 2 0
BITMAP
00C0
01C0
0180
0200
0400
0000
FFFC
381C
380C
3804
3804
3844
3840
38C0
3FC0
38C0
3840
3842
3842
3806
3806
380E
381E
FFFE
ENDCHAR

STARTCHAR Eogonek
ENCODING 202
SWIDTH 722 0
DWIDTH 18 0
BBX 16 23 2 -5
BITMAP
FFFC
381C
380C
3804
3804
3844
3840
38C0
3FC0
38C0
3840
3842
3842
3806
3806
380E
381E
FFFC
0020
0020
0030
0038
001F
ENDCHAR

STARTCHAR Edieresis
ENCODING 203
SWIDTH 722 0
DWIDTH 18 0
BBX 15 23 2 0
BITMAP
0840
1CE0
0840
0000
0000
FFFC
381C
380C
3804
3804
3844
3840
38C0
3FC0
38C0
3840
3842
3842
3806
3806
380E
381E
FFFC
ENDCHAR

STARTCHAR Ecaron
ENCODING 204
SWIDTH 722 0
DWIDTH 18 0
BBX 15 24 2 0
BITMAP
0860
06C0
0380
0300
0000
0000
FFFC
381C
380C
3804
3804
3844
3840
38C0
3FC0
38C0
3840
3842
3842
3806
3806
380E
381E
FFFE
ENDCHAR

STARTCHAR Iacute
ENCODING 205
SWIDTH 407 0
DWIDTH 10 0
BBX 9 24 1 0
BITMAP
0700
0600
0C00
1800
1000
0000
FF80
1C00
1C00
1C00
1C00
1C00
1C00
1C00
1C00
1C00
1C00
1C00
1C00
1C00
1C00
1C00
1C00
FF80
ENDCHAR

STARTCHAR Icircumflex
ENCODING 206
SWIDTH 407 0
DWIDTH 10 0
BBX 9 24 1 0
BITMAP
1800
1C00
2600
4100
0000
0000
FF80
1C00
1C00
1C00
1C00
1C00
1C00
1C00
1C00
1C00
1C00
1C00
1C00
1C00
1C00
1C00
1C00
FF80
ENDCHAR

STARTCHAR Dcaron
ENCODING 207
SWIDTH 778 0
DWIDTH 19 0
BBX 18 24 0 0
BITMAP
021800
012000
00E000
00C000
000000
000000
FFF800
1C0E00
1C0700
1C0380
1C0380
1C01C0
1C01C0
1C01C0
1C01C0
1C01C0
1C01C0
1C01C0
1C01C0
1C0380
1C0380
1C0700
1C0E00
FFF800
ENDCHAR

STARTCHAR Dcroat
ENCODING 208
SWIDTH 778 0
DWIDTH 19 0
BBX 18 18 0 0
BITMAP
FFF800
1C0E00
1C0700
1C0380
1C0380
1C01C0
1C01C0
1C01C0
FF81C0
1C01C0
1C01C0
1C01C0
1C0180
1C0380
1C0300
1C0700
1C0E00
FFF800
ENDCHAR

STARTCHAR Nacute
ENCODING 209
SWIDTH 815 0
DWIDTH 20 0
BBX 19 24 1 0
BITMAP
003000
003000
006000
00C000
008000
000000
F80FE0
3C0380
1C0100
160100
170100
138100
138100
11C100
10E100
107100
107100
103900
101D00
100F00
100F00
100700
780300
FE0100
ENDCHAR

STARTCHAR Ncaron
ENCODING 210
SWIDTH 815 0
DWIDTH 20 0
BBX 19 24 1 0
BITMAP
031800
01B000
00E000
004000
000000
000000
F80FE0
3C0380
1C0100
160100
170100
138100
138100
11C100
10E100
107100
107100
103900
101D00
100F00
100F00
100700
780300
FE0100
ENDCHAR

STARTCHAR Oacute
ENCODING 211
SWIDTH 778 0
DWIDTH 19 0
BBX 17 24 1 0
BITMAP
002000
007000
00E000
018000
010000
000000
07E000
0C1800
380E00
300600
700700
600300
E00380
E00380
E00380
E00380
E00380
E00380
600300
700700
300600
180E00
0C1800
03E000
ENDCHAR

STARTCHAR Ocircumflex
ENCODING 212
SWIDTH 778 0
DWIDTH 19 0
BBX 17 24 1 0
BITMAP
008000
01C000
036000
063000
000000
000000
07E000
0C1800
380E00
300600
700700
600300
E00380
E00380
E00380
E00380
E00380
E00380
600300
700700
300600
180E00
0C1800
03E000
ENDCHAR

STARTCHAR Ohungarumlaut
ENCODING 213
SWIDTH 778 0
DWIDTH 19 0
BBX 17 24 1 0
BITMAP
00C400
018E00
039C00
063000
042000
000000
07E000
0C1800
380E00
300600
700700
600300
E00380
E00380
E00380
E00380
E00380
E00380
600300
700700
300600
180E00
0C1800
03E000
ENDCHAR

STARTCHAR Odieresis
ENCODING 214
SWIDTH 778 0
DWIDTH 19 0
BBX 16 23 2 0
BITMAP
0420
0E70
0420
0000
0000
07E0
1C38
380C
300E
6006
E007
E007
E007
E007
E007
E007
E007
6007
7006
300C
381C
0C38
07E0
ENDCHAR

STARTCHAR multiply
ENCODING 215
SWIDTH 606 0
DWIDTH 15 0
BBX 13 13 1 2
BITMAP
4010
E038
7070
38E0
1DC0
0F80
0700
0F80
1DC0
38E0
7070
E038
4010
ENDCHAR

STARTCHAR Rcaron
ENCODING 216
SWIDTH 722 0
DWIDTH 18 0
BBX 17 24 1 0
BITMAP
063000
036000
01C000
008000
000000
000000
FFF000
1C1C00
1C0C00
1C0E00
1C0E00
1C0E00
1C0C00
1C3800
1FC000
1C7000
1C3800
1C1800
1C1800
1C1C00
1C1C80
1C1C80
1C0F00
FF8600
ENDCHAR

STARTCHAR Uring
ENCODING 217
SWIDTH 815 0
DWIDTH 20 0
BBX 19 25 1 0
BITMAP
00E000
011000
011000
011000
00E000
000000
000000
FF0FE0
1C0380
1C0100
1C0100
1C0100
1C0100
1C0100
1C0100
1C0100
1C0100
1C0100
1C0100
1C0100
1C0100
1C0300
0E0200
070E00
03F800
ENDCHAR

STARTCHAR Uacute
ENCODING 218
SWIDTH 815 0
DWIDTH 20 0
BBX 20 24 0 0
BITMAP
001800
003800
003000
004000
008000
000000
FF87F0
1C01C0
1C0080
1C0080
1C0080
1C0080
1C0080
1C0080
1C0080
1C0080
1C0080
1C0080
1C0080
1C0080
1C0180
0E0100
078600
03FC00
ENDCHAR

STARTCHAR Uhungarumlaut
ENCODING 219
SWIDTH 815 0
DWIDTH 20 0
BBX 20 24 0 0
BITMAP
006300
00E700
01C600
010800
021000
000000
FF87F0
1C01C0
1C0080
1C0080
1C0080
1C0080
1C0080
1C0080
1C0080
1C0080
1C0080
1C0080
1C0080
1C0080
1C0180
0E0100
078600
03FC00
ENDCHAR

STARTCHAR Udieresis
ENCODING 220
SWIDTH 815 0
DWIDTH 20 0
BBX 20 23 0 0
BITMAP
010800
039C00
010800
000000
000000
FF87F0
1C01C0
1C0080
1C0080
1C0080
1C0080
1C0080
1C0080
1C0080
1C0080
1C0080
1C0080
1C0080
1C0080
1C0180
0E0100
070600
03FC00
ENDCHAR

STARTCHAR Yacute
ENCODING 221
SWIDTH 704 0
DWIDTH 18 0
BBX 18 24 0 0
BITMAP
003000
007000
006000
008000
010000
000000
FF1FC0
380700
1C0200
0E0600
0E0400
070C00
030800
039000
01D000
01E000
00E000
00E000
00E000
00E000
00E000
00E000
00E000
07FC00
ENDCHAR

STARTCHAR Tcommaaccent
ENCODING 222
SWIDTH 667 0
DWIDTH 17 0
BBX 15 23 1 -5
BITMAP
FFFE
E38E
C386
C386
8382
8382
8382
0380
0380
0380
0380
0380
0380
0380
0380
0380
0380
1FF0
0000
0300
0380
0080
0100
ENDCHAR

STARTCHAR germandbls
ENCODING 223
SWIDTH 574 0
DWIDTH 14 0
BBX 12 19 1 0
BITMAP
0F80
18C0
3060
3060
3060
3060
3040
3180
30C0
3060
3030
3030
3030
3030
3030
3130
3320
3360
F9C0
ENDCHAR

STARTCHAR racute
ENCODING 224
SWIDTH 444 0
DWIDTH 11 0
BBX 10 18 1 0
BITMAP
0700
0600
0C00
1800
1000
0000
7100
F780
35C0
39C0
3000
3000
3000
3000
3000
3000
3000
FE00
ENDCHAR

STARTCHAR aacute
ENCODING 225
SWIDTH 556 0
DWIDTH 14 0
BBX 12 19 1 0
BITMAP
0080
0180
0380
0300
0400
0000
0000
1F00
31C0
70C0
70C0
20C0
0FC0
30C0
60C0
E0C0
E1C0
72F0
3C70
ENDCHAR

STARTCHAR acircumflex
ENCODING 226
SWIDTH 556 0
DWIDTH 14 0
BBX 12 18 1 0
BITMAP
0700
0500
0880
1040
0000
0000
1F00
31C0
70C0
70C0
20C0
0FC0
30C0
60C0
E0C0
E1C0
72F0
3C70
ENDCHAR

STARTCHAR abreve
ENCODING 227
SWIDTH 556 0
DWIDTH 14 0
BBX 12 18 1 0
BITMAP
1040
18C0
0F80
0700
0000
0000
1F00
31C0
70C0
70C0
20C0
0FC0
30C0
60C0
E0C0
E1C0
72F0
3C70
ENDCHAR

STARTCHAR adieresis
ENCODING 228
SWIDTH 556 0
DWIDTH 14 0
BBX 12 17 1 0
BITMAP
1080
19C0
1080
0000
0000
1F00
6180
6080
60C0
20C0
0FC0
30C0
60C0
C1C0
E1C0
66D0
3860
ENDCHAR

STARTCHAR lacute
ENCODING 229
SWIDTH 315 0
DWIDTH 8 0
BBX 6 24 1 0
BITMAP
0C
1C
38
20
40
00
F0
70
30
30
30
30
30
30
30
30
30
30
30
30
30
30
30
FC
ENDCHAR

STARTCHAR cacute
ENCODING 230
SWIDTH 444 0
DWIDTH 11 0
BBX 10 19 1 0
BITMAP
0100
0300
0700
0C00
1800
1000
0000
1F00
3180
61C0
E1C0
C080
C000
C000
C000
E040
6040
7180
1F00
ENDCHAR

STARTCHAR ccedilla
ENCODING 231
SWIDTH 444 0
DWIDTH 11 0
BBX 9 16 1 -4
BITMAP
1E00
3100
6180
C380
C100
C000
C000
C000
C080
6080
7100
1E00
0C00
0600
0600
1C00
ENDCHAR

STARTCHAR ccaron
ENCODING 232
SWIDTH 444 0
DWIDTH 11 0
BBX 10 18 1 0
BITMAP
6180
1200
1C00
0C00
0000
0000
1F00
3180
61C0
E1C0
C080
C000
C000
C000
E040
6040
7180
1F00
ENDCHAR

STARTCHAR eacute
ENCODING 233
SWIDTH 500 0
DWIDTH 13 0
BBX 10 18 1 0
BITMAP
0300
0700
0C00
0800
1000
0000
1E00
3180
60C0
C0C0
C0C0
FFC0
C000
C000
E040
6040
3180
1F00
ENDCHAR

STARTCHAR eogonek
ENCODING 234
SWIDTH 500 0
DWIDTH 13 0
BBX 10 17 1 -5
BITMAP
1E00
2180
6080
C0C0
C0C0
FFC0
C000
C000
E040
6040
3180
1F00
0800
0800
0C00
0E00
07C0
ENDCHAR

STARTCHAR edieresis
ENCODING 235
SWIDTH 500 0
DWIDTH 13 0
BBX 10 17 1 0
BITMAP
2100
3380
2100
0000
0000
1E00
2180
60C0
40C0
C0C0
FFC0
C000
C000
6040
6040
3180
1F00
ENDCHAR

STARTCHAR ecaron
ENCODING 236
SWIDTH 500 0
DWIDTH 13 0
BBX 10 18 1 0
BITMAP
2180
1300
1E00
0C00
0000
0000
1E00
3180
60C0
C0C0
C0C0
FFC0
C000
C000
E040
6040
3180
1F00
ENDCHAR

STARTCHAR iacute
ENCODING 237
SWIDTH 315 0
DWIDTH 8 0
BBX 7 18 0 0
BITMAP
06
0C
18
10
20
00
78
F8
18
18
18
18
18
18
18
18
18
7E
ENDCHAR

STARTCHAR icircumflex
ENCODING 238
SWIDTH 315 0
DWIDTH 8 0
BBX 7 18 0 0
BITMAP
18
3C
64
C2
00
00
78
F8
18
18
18
18
18
18
18
18
18
7E
ENDCHAR

STARTCHAR dcaron
ENCODING 239
SWIDTH 651 0
DWIDTH 16 0
BBX 14 18 2 0
BITMAP
03D8
00DC
00C4
00C8
00D0
00C0
1CC0
63C0
61C0
C0C0
C0C0
C0C0
C0C0
C0C0
E0C0
61C0
72C0
3CF0
ENDCHAR

STARTCHAR dcroat
ENCODING 240
SWIDTH 574 0
DWIDTH 14 0
BBX 12 18 2 0
BITMAP
03C0
00C0
00C0
0FF0
00C0
00C0
1CC0
63C0
61C0
C0C0
C0C0
C0C0
C0C0
C0C0
E0C0
61C0
72C0
3CF0
ENDCHAR

STARTCHAR nacute
ENCODING 241
SWIDTH 611 0
DWIDTH 15 0
BBX 14 18 1 0
BITMAP
00C0
01C0
0300
0200
0400
0000
F180
77E0
3870
3830
3030
3030
3030
3030
3030
3030
3030
FCFC
ENDCHAR

STARTCHAR ncaron
ENCODING 242
SWIDTH 611 0
DWIDTH 15 0
BBX 14 18 1 0
BITMAP
1840
0CC0
0780
0300
0000
0000
F180
77E0
3870
3830
3030
3030
3030
3030
3030
3030
3030
FCFC
ENDCHAR

STARTCHAR oacute
ENCODING 243
SWIDTH 500 0
DWIDTH 13 0
BBX 11 19 1 0
BITMAP
0080
0380
0700
0600
0800
0800
0000
1F00
3180
60C0
E060
C060
C060
C060
C060
E0E0
60C0
3180
1F00
ENDCHAR

STARTCHAR ocircumflex
ENCODING 244
SWIDTH 500 0
DWIDTH 13 0
BBX 11 18 1 0
BITMAP
0E00
0A00
1100
2080
0000
0000
1F00
3180
60C0
E060
C060
C060
C060
C060
E0E0
60C0
3180
1F00
ENDCHAR

STARTCHAR ohungarumlaut
ENCODING 245
SWIDTH 500 0
DWIDTH 13 0
BBX 12 19 1 0
BITMAP
0410
0E70
1C60
18C0
6100
2100
0000
1F00
3180
60C0
E060
C060
C060
C060
C060
E0E0
60C0
3180
1F00
ENDCHAR

STARTCHAR odieresis
ENCODING 246
SWIDTH 500 0
DWIDTH 13 0
BBX 10 17 1 0
BITMAP
2100
7380
2100
0000
0000
1E00
2180
6180
C0C0
C0C0
C0C0
C0C0
C0C0
C0C0
6180
3300
1E00
ENDCHAR

STARTCHAR divide
ENCODING 247
SWIDTH 606 0
DWIDTH 15 0
BBX 13 12 1 2
BITMAP
0300
0300
0000
0000
0000
FFF8
FFF8
0000
0000
0000
0300
0300
ENDCHAR

STARTCHAR rcaron
ENCODING 248
SWIDTH 444 0
DWIDTH 11 0
BBX 10 18 1 0
BITMAP
4100
3200
1C00
0C00
0000
0000
7100
F780
35C0
39C0
3000
3000
3000
3000
3000
3000
3000
FE00
ENDCHAR

STARTCHAR uring
ENCODING 249
SWIDTH 611 0
DWIDTH 15 0
BBX 13 19 1 0
BITMAP
0700
0880
0880
0880
0700
0000
0000
70E0
F1E0
3060
3060
3060
3060
3060
3060
3060
30E0
1F78
0400
ENDCHAR

STARTCHAR uacute
ENCODING 250
SWIDTH 611 0
DWIDTH 15 0
BBX 14 18 1 0
BITMAP
00C0
01C0
0300
0200
0400
0000
7070
F0F0
3030
3030
3030
3030
3030
3030
3030
3850
1FBC
0400
ENDCHAR

STARTCHAR uhungarumlaut
ENCODING 251
SWIDTH 611 0
DWIDTH 15 0
BBX 14 18 1 0
BITMAP
0318
0738
0C60
0840
1080
0000
7070
F0F0
3030
3030
3030
3030
3030
3030
3030
3850
1FBC
0400
ENDCHAR

STARTCHAR udieresis
ENCODING 252
SWIDTH 611 0
DWIDTH 15 0
BBX 14 17 1 0
BITMAP
0840
1CE0
0840
0000
0000
7070
F0F0
3030
3030
3030
3030
3030
3030
3030
3850
1FBC
0400
ENDCHAR

STARTCHAR yacute
ENCODING 253
SWIDTH 537 0
DWIDTH 13 0
BBX 13 24 0 -5
BITMAP
0080
01C0
0380
0600
0C00
0000
0000
FCF8
7030
3020
3820
1840
1840
0C80
0C80
0700
0700
0200
0200
0200
0400
CC00
C800
F000
ENDCHAR

STARTCHAR tcommaaccent
ENCODING 254
SWIDTH 389 0
DWIDTH 10 0
BBX 9 22 1 -5
BITMAP
1000
1000
1000
3000
7000
FF00
3000
3000
3000
3000
3000
3000
3080
3080
3100
3900
1E00
0000
1800
1C00
0400
0800
ENDCHAR

STARTCHAR dotaccent
ENCODING 255
SWIDTH 333 0
DWIDTH 8 0
BBX 3 3 3 15
BITMAP
40
E0
40
ENDCHAR
ENDFONT
